<svg xmlns="http://www.w3.org/2000/svg" width="1376" height="768" viewBox="0 0 1376 768" role="img" aria-labelledby="title desc">
  <title id="title">Surveillance active : différer sans abandonner l&apos;intention curative</title>
  <desc id="desc">Boucle de surveillance pour « Surveillance active : différer sans abandonner l&apos;intention curative ». Repères représentés : Risque tumoral favorable ; Espérance de vie et préférences ; Évaluation IRM–biopsies de qualité ; Surveillance curative différée.</desc>
  <defs><marker id="arrow" markerWidth="6" markerHeight="6" refX="5.5" refY="3" orient="auto"><path d="M 0 0 L 6 3 L 0 6 z" fill="#24313A"/></marker></defs>
  <rect width="1376" height="768" fill="#FFF8E8"/>
  <rect width="18" height="768" fill="#007C83"/>
  <text x="60" y="46" font-family="Arial, Helvetica, sans-serif" font-size="15" font-weight="800" fill="#007C83" letter-spacing="2">ONCORT ACADEMY · PROSTATE</text>
  <rect x="60" y="62" width="254" height="34" rx="17" fill="#DDF3F1"/>
  <text x="77" y="85" font-family="Arial, Helvetica, sans-serif" font-size="15" font-weight="800" fill="#007C83">BOUCLE DE SURVEILLANCE</text>
  <text x="60" y="132" font-family="Arial, Helvetica, sans-serif" font-size="34" font-weight="800" fill="#24313A" text-anchor="start"><tspan x="60" dy="0">Surveillance active : différer sans abandonner l&apos;intention</tspan><tspan x="60" dy="39">curative</tspan></text>
  <path d="M 770 264 C 910 285 980 325 1000 360" fill="none" stroke="#007C83" stroke-width="4" stroke-linecap="round" marker-end="url(#arrow)"/><path d="M 990 475 C 930 555 840 575 770 580" fill="none" stroke="#007C83" stroke-width="4" stroke-linecap="round" marker-end="url(#arrow)"/><path d="M 606 580 C 505 560 405 505 385 470" fill="none" stroke="#007C83" stroke-width="4" stroke-linecap="round" marker-end="url(#arrow)"/><path d="M 385 360 C 425 285 525 250 606 244" fill="none" stroke="#007C83" stroke-width="4" stroke-linecap="round" marker-end="url(#arrow)"/><circle cx="688" cy="415" r="92" fill="#DDF3F1" stroke="#007C83" stroke-width="4"/><text x="688" y="424" font-family="Arial, Helvetica, sans-serif" font-size="22" font-weight="850" fill="#007C83" text-anchor="middle"><tspan x="688" dy="0">RÉÉVALUER</tspan></text><g><rect x="553" y="197" width="270" height="96" rx="20" fill="#FFFCF4" stroke="#007C83" stroke-width="3"/><text x="688" y="251.65" font-family="Arial, Helvetica, sans-serif" font-size="19" font-weight="700" fill="#24313A" text-anchor="middle"><tspan x="688" dy="0">Risque tumoral favorable</tspan></text></g><g><rect x="875" y="367" width="270" height="96" rx="20" fill="#E5EEF8" stroke="#2563A6" stroke-width="3"/><text x="1010" y="410.63" font-family="Arial, Helvetica, sans-serif" font-size="19" font-weight="700" fill="#24313A" text-anchor="middle"><tspan x="1010" dy="0">Espérance de vie et</tspan><tspan x="1010" dy="22">préférences</tspan></text></g><g><rect x="553" y="537" width="270" height="96" rx="20" fill="#FFFCF4" stroke="#007C83" stroke-width="3"/><text x="688" y="580.63" font-family="Arial, Helvetica, sans-serif" font-size="19" font-weight="700" fill="#24313A" text-anchor="middle"><tspan x="688" dy="0">Évaluation IRM–biopsies</tspan><tspan x="688" dy="22">de qualité</tspan></text></g><g><rect x="231" y="367" width="270" height="96" rx="20" fill="#E5EEF8" stroke="#2563A6" stroke-width="3"/><text x="366" y="410.63" font-family="Arial, Helvetica, sans-serif" font-size="19" font-weight="700" fill="#24313A" text-anchor="middle"><tspan x="366" dy="0">Surveillance curative</tspan><tspan x="366" dy="22">différée</tspan></text></g>
  <rect x="60" y="688" width="1256" height="48" rx="14" fill="#24313A"/>
  <text x="84" y="718" font-family="Arial, Helvetica, sans-serif" font-size="16" font-weight="750" fill="#FFFFFF">Boucle de surveillance · SCHÉMA ÉDUCATIF · NEEDS_REVIEW</text>
  <text x="1290" y="718" font-family="Arial, Helvetica, sans-serif" font-size="14" font-weight="650" fill="#BBD8D2" text-anchor="end">Revue clinique nominative requise</text>
  </svg>
