<svg xmlns="http://www.w3.org/2000/svg" width="1376" height="768" viewBox="0 0 1376 768" role="img" aria-labelledby="title desc">
  <title id="title">Taxanes : indication, fitness et prévention des complications</title>
  <desc id="desc">Cycles de taxane pour « Taxanes : indication, fitness et prévention des complications ». Repères représentés : Séquence et bénéfice ; Fitness et réserves ; Taxane choisi ; Prévention et réévaluation à chaque cycle.</desc>
  <defs><marker id="arrow" markerWidth="6" markerHeight="6" refX="5.5" refY="3" orient="auto"><path d="M 0 0 L 6 3 L 0 6 z" fill="#24313A"/></marker></defs>
  <rect width="1376" height="768" fill="#FFF8E8"/>
  <rect width="18" height="768" fill="#007C83"/>
  <text x="60" y="46" font-family="Arial, Helvetica, sans-serif" font-size="15" font-weight="800" fill="#007C83" letter-spacing="2">ONCORT ACADEMY · PROSTATE</text>
  <rect x="60" y="62" width="194" height="34" rx="17" fill="#DDF3F1"/>
  <text x="77" y="85" font-family="Arial, Helvetica, sans-serif" font-size="15" font-weight="800" fill="#007C83">CYCLES DE TAXANE</text>
  <text x="60" y="132" font-family="Arial, Helvetica, sans-serif" font-size="34" font-weight="800" fill="#24313A" text-anchor="start"><tspan x="60" dy="0">Taxanes : indication, fitness et prévention des complications</tspan></text>
  <line x1="130" y1="445" x2="1246" y2="445" stroke="#D8D5C9" stroke-width="8" stroke-linecap="round"/><path d="M 245 445 L 457 445" fill="none" stroke="#007C83" stroke-width="4" stroke-linecap="round" marker-end="url(#arrow)"/><path d="M 570 445 L 782 445" fill="none" stroke="#007C83" stroke-width="4" stroke-linecap="round" marker-end="url(#arrow)"/><path d="M 895 445 L 1107 445" fill="none" stroke="#007C83" stroke-width="4" stroke-linecap="round" marker-end="url(#arrow)"/><g>
    <rect x="127" y="260" width="126" height="112" rx="16" fill="#DDF3F1" stroke="#007C83" stroke-width="3"/><rect x="127" y="260" width="126" height="28" rx="14" fill="#007C83"/><path d="M 152 246 V 277 M 228 246 V 277" stroke="#24313A" stroke-width="6" stroke-linecap="round"/><g fill="#24313A"><circle cx="156" cy="310" r="4"/><circle cx="190" cy="310" r="4"/><circle cx="224" cy="310" r="4"/><circle cx="156" cy="332" r="4"/><circle cx="190" cy="332" r="4"/><circle cx="224" cy="332" r="4"/><circle cx="156" cy="354" r="4"/><circle cx="190" cy="354" r="4"/><circle cx="224" cy="354" r="4"/></g>
    <circle cx="190" cy="445" r="13" fill="#FFF8E8" stroke="#007C83" stroke-width="5"/>
    <text x="190" y="505" font-family="Arial, Helvetica, sans-serif" font-size="21" font-weight="750" fill="#24313A" text-anchor="middle"><tspan x="190" dy="0">Séquence et bénéfice</tspan></text>
  </g><g>
    <rect x="452" y="260" width="126" height="112" rx="16" fill="#E5EEF8" stroke="#2563A6" stroke-width="3"/><rect x="452" y="260" width="126" height="28" rx="14" fill="#2563A6"/><path d="M 477 246 V 277 M 553 246 V 277" stroke="#24313A" stroke-width="6" stroke-linecap="round"/><g fill="#24313A"><circle cx="481" cy="310" r="4"/><circle cx="515" cy="310" r="4"/><circle cx="549" cy="310" r="4"/><circle cx="481" cy="332" r="4"/><circle cx="515" cy="332" r="4"/><circle cx="549" cy="332" r="4"/><circle cx="481" cy="354" r="4"/><circle cx="515" cy="354" r="4"/><circle cx="549" cy="354" r="4"/></g>
    <circle cx="515" cy="445" r="13" fill="#FFF8E8" stroke="#007C83" stroke-width="5"/>
    <text x="515" y="505" font-family="Arial, Helvetica, sans-serif" font-size="21" font-weight="750" fill="#24313A" text-anchor="middle"><tspan x="515" dy="0">Fitness et réserves</tspan></text>
  </g><g>
    <rect x="777" y="260" width="126" height="112" rx="16" fill="#DDF3F1" stroke="#007C83" stroke-width="3"/><rect x="777" y="260" width="126" height="28" rx="14" fill="#007C83"/><path d="M 802 246 V 277 M 878 246 V 277" stroke="#24313A" stroke-width="6" stroke-linecap="round"/><g fill="#24313A"><circle cx="806" cy="310" r="4"/><circle cx="840" cy="310" r="4"/><circle cx="874" cy="310" r="4"/><circle cx="806" cy="332" r="4"/><circle cx="840" cy="332" r="4"/><circle cx="874" cy="332" r="4"/><circle cx="806" cy="354" r="4"/><circle cx="840" cy="354" r="4"/><circle cx="874" cy="354" r="4"/></g>
    <circle cx="840" cy="445" r="13" fill="#FFF8E8" stroke="#007C83" stroke-width="5"/>
    <text x="840" y="505" font-family="Arial, Helvetica, sans-serif" font-size="21" font-weight="750" fill="#24313A" text-anchor="middle"><tspan x="840" dy="0">Taxane choisi</tspan></text>
  </g><g>
    <rect x="1102" y="260" width="126" height="112" rx="16" fill="#E5EEF8" stroke="#2563A6" stroke-width="3"/><rect x="1102" y="260" width="126" height="28" rx="14" fill="#2563A6"/><path d="M 1127 246 V 277 M 1203 246 V 277" stroke="#24313A" stroke-width="6" stroke-linecap="round"/><g fill="#24313A"><circle cx="1131" cy="310" r="4"/><circle cx="1165" cy="310" r="4"/><circle cx="1199" cy="310" r="4"/><circle cx="1131" cy="332" r="4"/><circle cx="1165" cy="332" r="4"/><circle cx="1199" cy="332" r="4"/><circle cx="1131" cy="354" r="4"/><circle cx="1165" cy="354" r="4"/><circle cx="1199" cy="354" r="4"/></g>
    <circle cx="1165" cy="445" r="13" fill="#FFF8E8" stroke="#007C83" stroke-width="5"/>
    <text x="1165" y="505" font-family="Arial, Helvetica, sans-serif" font-size="21" font-weight="750" fill="#24313A" text-anchor="middle"><tspan x="1165" dy="0">Prévention et</tspan><tspan x="1165" dy="24">réévaluation à chaque</tspan><tspan x="1165" dy="24">cycle</tspan></text>
  </g>
  <rect x="60" y="688" width="1256" height="48" rx="14" fill="#24313A"/>
  <text x="84" y="718" font-family="Arial, Helvetica, sans-serif" font-size="16" font-weight="750" fill="#FFFFFF">Cycles de taxane · SCHÉMA ÉDUCATIF · NEEDS_REVIEW</text>
  <text x="1290" y="718" font-family="Arial, Helvetica, sans-serif" font-size="14" font-weight="650" fill="#BBD8D2" text-anchor="end">Revue clinique nominative requise</text>
  </svg>
