<svg xmlns="http://www.w3.org/2000/svg" width="1376" height="768" viewBox="0 0 1376 768" role="img" aria-labelledby="title desc">
  <title id="title">PSA après traitement local : interpréter avant d&apos;imager</title>
  <desc id="desc">Courbe de PSA pour « PSA après traitement local : interpréter avant d&apos;imager ». Repères représentés : Traitement initial ; Trajectoire PSA ; Risque et symptômes ; Imagerie seulement décisionnelle.</desc>
  <defs><marker id="arrow" markerWidth="6" markerHeight="6" refX="5.5" refY="3" orient="auto"><path d="M 0 0 L 6 3 L 0 6 z" fill="#24313A"/></marker></defs>
  <rect width="1376" height="768" fill="#FFF8E8"/>
  <rect width="18" height="768" fill="#007C83"/>
  <text x="60" y="46" font-family="Arial, Helvetica, sans-serif" font-size="15" font-weight="800" fill="#007C83" letter-spacing="2">ONCORT ACADEMY · PROSTATE</text>
  <rect x="60" y="62" width="190" height="34" rx="17" fill="#DDF3F1"/>
  <text x="77" y="85" font-family="Arial, Helvetica, sans-serif" font-size="15" font-weight="800" fill="#007C83">COURBE DE PSA</text>
  <text x="60" y="132" font-family="Arial, Helvetica, sans-serif" font-size="34" font-weight="800" fill="#24313A" text-anchor="start"><tspan x="60" dy="0">PSA après traitement local : interpréter avant d&apos;imager</tspan></text>
  <line x1="180" y1="610" x2="1210" y2="610" stroke="#24313A" stroke-width="5" marker-end="url(#arrow)"/>
    <line x1="180" y1="610" x2="180" y2="235" stroke="#24313A" stroke-width="5" marker-end="url(#arrow)"/>
    <line x1="180" y1="510" x2="1185" y2="510" stroke="#D8D5C9" stroke-width="2" stroke-dasharray="8 9"/>
    <line x1="180" y1="410" x2="1185" y2="410" stroke="#D8D5C9" stroke-width="2" stroke-dasharray="8 9"/>
    <line x1="180" y1="310" x2="1185" y2="310" stroke="#D8D5C9" stroke-width="2" stroke-dasharray="8 9"/>
    <path d="M 210 560 C 360 555 480 555 610 540 S 820 440 910 360 S 1050 285 1170 255" fill="none" stroke="#D97706" stroke-width="8" stroke-linecap="round"/><path d="M 210 565 C 460 565 820 565 1170 565" fill="none" stroke="#007C83" stroke-width="7" stroke-linecap="round"/><path d="M 210 420 C 430 455 720 520 1170 545" fill="none" stroke="#2563A6" stroke-width="5" stroke-linecap="round" stroke-dasharray="13 10"/>
    <circle cx="280" cy="550" r="11" fill="#FFFCF4" stroke="#007C83" stroke-width="5"/><text x="280" y="514" font-family="Arial, Helvetica, sans-serif" font-size="18" font-weight="750" fill="#24313A" text-anchor="middle"><tspan x="280" dy="0">Traitement initial</tspan></text><circle cx="520" cy="510" r="11" fill="#FFFCF4" stroke="#007C83" stroke-width="5"/><text x="520" y="474" font-family="Arial, Helvetica, sans-serif" font-size="18" font-weight="750" fill="#24313A" text-anchor="middle"><tspan x="520" dy="0">Trajectoire PSA</tspan></text><circle cx="795" cy="420" r="11" fill="#FFFCF4" stroke="#007C83" stroke-width="5"/><text x="795" y="384" font-family="Arial, Helvetica, sans-serif" font-size="18" font-weight="750" fill="#24313A" text-anchor="middle"><tspan x="795" dy="0">Risque et symptômes</tspan></text><circle cx="1080" cy="290" r="11" fill="#FFFCF4" stroke="#007C83" stroke-width="5"/><text x="1080" y="254" font-family="Arial, Helvetica, sans-serif" font-size="18" font-weight="750" fill="#24313A" text-anchor="middle"><tspan x="1080" dy="0">Imagerie seulement</tspan><tspan x="1080" dy="21">décisionnelle</tspan></text>
    <text x="1190" y="649" font-family="Arial" font-size="16" font-weight="750" fill="#64727A" text-anchor="end">TEMPS</text>
    <text x="146" y="255" font-family="Arial" font-size="16" font-weight="750" fill="#64727A" transform="rotate(-90 146 255)" text-anchor="end">PSA</text>
  <rect x="60" y="688" width="1256" height="48" rx="14" fill="#24313A"/>
  <text x="84" y="718" font-family="Arial, Helvetica, sans-serif" font-size="16" font-weight="750" fill="#FFFFFF">Courbe de PSA · SCHÉMA ÉDUCATIF · NEEDS_REVIEW</text>
  <text x="1290" y="718" font-family="Arial, Helvetica, sans-serif" font-size="14" font-weight="650" fill="#BBD8D2" text-anchor="end">Revue clinique nominative requise</text>
  </svg>
